HIERARCHY
ROOT Hips
{
	OFFSET 0.00000 0.00000 0.00000
	CHANNELS 6 Xposition Yposition Zposition Zrotation Yrotation Xrotation 
	JOINT LHipJoint
	{
		OFFSET 0 0 0
		CHANNELS 3 Zrotation Yrotation Xrotation
		JOINT LeftUpLeg
		{
			OFFSET 1.17584 -1.63585 1.00361
			CHANNELS 3 Zrotation Yrotation Xrotation
			JOINT LeftLeg
			{
				OFFSET 2.23889 -6.15131 0.00000
				CHANNELS 3 Zrotation Yrotation Xrotation
				JOINT LeftFoot
				{
					OFFSET 2.65161 -7.28525 0.00000
					CHANNELS 3 Zrotation Yrotation Xrotation
					JOINT LeftToeBase
					{
						OFFSET 0.24898 -0.68407 1.57235
						CHANNELS 3 Zrotation Yrotation Xrotation
						End Site
						{
							OFFSET 0.00000 -0.00000 0.85838
						}
					}
				}
			}
		}
	}
	JOINT RHipJoint
	{
		OFFSET 0 0 0
		CHANNELS 3 Zrotation Yrotation Xrotation
		JOINT RightUpLeg
		{
			OFFSET -1.15592 -1.63585 1.00361
			CHANNELS 3 Zrotation Yrotation Xrotation
			JOINT RightLeg
			{
				OFFSET -2.34071 -6.43104 0.00000
				CHANNELS 3 Zrotation Yrotation Xrotation
				JOINT RightFoot
				{
					OFFSET -2.59113 -7.11908 0.00000
					CHANNELS 3 Zrotation Yrotation Xrotation
					JOINT RightToeBase
					{
						OFFSET -0.17867 -0.49089 1.70981
						CHANNELS 3 Zrotation Yrotation Xrotation
						End Site
						{
							OFFSET -0.00000 -0.00000 0.89861
						}
					}
				}
			}
		}
	}
	JOINT LowerBack
	{
		OFFSET 0 0 0
		CHANNELS 3 Zrotation Yrotation Xrotation
		JOINT Spine
		{
			OFFSET -0.02255 1.90764 -0.16605
			CHANNELS 3 Zrotation Yrotation Xrotation
			JOINT Spine1
			{
				OFFSET -0.00365 1.92150 -0.04898
				CHANNELS 3 Zrotation Yrotation Xrotation
				JOINT Neck
				{
					OFFSET 0 0 0
					CHANNELS 3 Zrotation Yrotation Xrotation
					JOINT Neck1
					{
						OFFSET 0.00372 1.59170 0.08694
						CHANNELS 3 Zrotation Yrotation Xrotation
						JOINT Head
						{
							OFFSET 0.12558 1.58643 -0.08078
							CHANNELS 3 Zrotation Yrotation Xrotation
							End Site
							{
								OFFSET 0.04211 1.60835 -0.03803
							}
						}
					}
				}
				JOINT LeftShoulder
				{
					OFFSET 0 0 0
					CHANNELS 3 Zrotation Yrotation Xrotation
					JOINT LeftArm
					{
						OFFSET 3.69324 0.96316 0.19077
						CHANNELS 3 Zrotation Yrotation Xrotation
						JOINT LeftForeArm
						{
							OFFSET 4.87796 -0.00000 -0.00000
							CHANNELS 3 Zrotation Yrotation Xrotation
							JOINT LeftHand
							{
								OFFSET 3.23169 -0.00000 0.00000
								CHANNELS 3 Zrotation Yrotation Xrotation
								JOINT LeftFingerBase
								{
									OFFSET 0 0 0
									CHANNELS 3 Zrotation Yrotation Xrotation
									JOINT LeftHandIndex1
									{
										OFFSET 0.73132 -0.00000 0.00000
										CHANNELS 3 Zrotation Yrotation Xrotation
										End Site
										{
											OFFSET 0.58961 -0.00000 0.00000
										}
									}
								}
								JOINT LThumb
								{
									OFFSET 0 0 0
									CHANNELS 3 Zrotation Yrotation Xrotation
									End Site
									{
										OFFSET 0.59861 -0.00000 0.59861
									}
								}
							}
						}
					}
				}
				JOINT RightShoulder
				{
					OFFSET 0 0 0
					CHANNELS 3 Zrotation Yrotation Xrotation
					JOINT RightArm
					{
						OFFSET -3.66103 0.75145 0.08281
						CHANNELS 3 Zrotation Yrotation Xrotation
						JOINT RightForeArm
						{
							OFFSET -4.91430 -0.00000 0.00000
							CHANNELS 3 Zrotation Yrotation Xrotation
							JOINT RightHand
							{
								OFFSET -3.29093 -0.00000 0.00000
								CHANNELS 3 Zrotation Yrotation Xrotation
								JOINT RightFingerBase
								{
									OFFSET 0 0 0
									CHANNELS 3 Zrotation Yrotation Xrotation
									JOINT RightHandIndex1
									{
										OFFSET -0.54512 -0.00000 0.00000
										CHANNELS 3 Zrotation Yrotation Xrotation
										End Site
										{
											OFFSET -0.43949 -0.00000 0.00000
										}
									}
								}
								JOINT RThumb
								{
									OFFSET 0 0 0
									CHANNELS 3 Zrotation Yrotation Xrotation
									End Site
									{
										OFFSET -0.44620 -0.00000 0.44620
									}
								}
							}
						}
					}
				}
			}
		}
	}
}
MOTION
Frames: 15
Frame Time: .0083333
10.6057 15.897 -0.5627 0 0 0 0 0 0 -21 0 0 0 0 0 0 0 0 0 0 0 0 0 0 21 0 0 0 0 0 0 0 0 0 0 0 0 0 0 0 0 0 0 0 0 0 0 -16 0 0 21 0 0 11 0 0 0 -8 0 0 0 0 0 0 0 0 0 0 0 0 0 0 0 0 0 0 0 0 8 0 0 0 0 0 0 0 0 0 0 0 0 0 0 0 0 0
10.6057 15.8970 -0.5627 96.3056 -88.2036 -99.6689 0.0000 0.0000 0.0000 -10.0213 -3.7629 -11.6656 4.4533 12.7403 38.4041 1.9186 11.5325 -32.4457 3.3202 -11.1963 -32.9447 0.0000 0.0000 0.0000 7.2565 5.1363 -8.0216 -4.2450 -12.4795 37.4499 -3.4410 1.8133 -34.7278 -1.9524 -8.7663 25.0670 -2.8365 -0.7278 -6.9993 -1.0735 -0.6324 3.6150 0.3758 -0.4356 7.7566 -1.4654 0.9696 -0.4167 3.7261 0.2124 19.3071 1.4111 0.0230 5.8807 -0.0000 -0.0000 0.0000 -90.8268 -0.0189 19.6418 33.4193 -43.6498 -13.7106 -0.0000 -0.0000 33.0529 18.2529 -22.4933 -7.1913 -7.1250 0.0000 -0.0000 -6.6813 6.5557 5.9162 -0.0000 -0.0000 0.0000 83.7885 4.1487 45.5703 -26.8257 38.0125 -9.3916 0.0000 0.0000 15.2125 -22.8522 -35.4888 13.7480 7.1250 -0.0000 -0.0000 14.4254 -67.1855 -7.7694
10.6074 15.8969 -0.5657 98.0526 -88.2295 -101.4080 0.0000 0.0000 0.0000 -9.9904 -3.7395 -11.7021 4.4510 12.7375 38.3938 1.8445 11.8327 -32.2251 3.4950 -11.4563 -33.8347 0.0000 0.0000 0.0000 7.3666 5.4069 -7.9707 -4.2495 -12.4852 37.4709 -3.4020 1.7591 -34.5372 -2.4611 -9.7668 28.2248 -2.7844 -0.6541 -6.9926 -1.1223 -0.5357 3.6771 0.3076 -0.3858 7.8154 -1.2201 0.9792 -0.5999 3.7197 0.2145 19.3472 1.3690 0.0444 5.9259 -0.0000 -0.0000 0.0000 -90.6185 -0.3210 19.7048 33.3269 -43.5798 -13.6469 -0.0000 -0.0000 32.7174 17.1956 -23.1735 -6.9433 -7.1250 0.0000 -0.0000 -7.3897 6.0119 6.6318 -0.0000 -0.0000 0.0000 83.9293 4.2704 45.4147 -26.8095 37.9969 -9.3816 0.0000 0.0000 15.2556 -22.8489 -35.4091 13.7200 7.1250 -0.0000 -0.0000 14.3488 -67.1078 -7.7022
10.6065 15.8976 -0.5672 99.8784 -88.2654 -103.2130 0.0000 0.0000 0.0000 -9.9389 -3.7156 -11.7322 4.4529 12.7398 38.4021 1.8244 12.0208 -32.2456 3.6158 -11.6307 -34.4379 0.0000 0.0000 0.0000 7.4328 5.4877 -7.9746 -4.2474 -12.4825 37.4611 -3.3751 1.7398 -34.4009 -2.6603 -10.1236 29.3781 -2.7222 -0.5926 -6.9132 -1.1426 -0.4622 3.6151 0.2631 -0.3443 7.6994 -1.1900 0.9741 -0.5769 3.7792 0.1864 19.4380 1.3817 0.0349 5.9513 0.0000 0.0000 0.0000 -90.5264 -0.1656 19.7393 33.4772 -43.6936 -13.7506 -0.0000 -0.0000 32.3871 16.2192 -23.6585 -6.6580 -7.1250 0.0000 -0.0000 -8.0282 5.6568 7.2712 0.0000 0.0000 0.0000 84.0183 4.1330 45.2436 -26.8175 38.0046 -9.3865 0.0000 0.0000 15.4799 -22.9043 -35.0836 13.6497 7.1250 -0.0000 -0.0000 13.9570 -66.8104 -7.3937
10.6068 15.8994 -0.5708 101.7060 -88.3457 -104.9850 0.0000 0.0000 0.0000 -9.8237 -3.7416 -11.7910 4.4538 12.7410 38.4064 1.8291 12.0294 -32.2803 3.6294 -11.6502 -34.5054 0.0000 0.0000 0.0000 7.5762 5.6531 -7.9868 -4.2466 -12.4815 37.4573 -3.4048 1.7132 -34.5634 -2.6120 -10.0388 29.1024 -2.7665 -0.6314 -6.8765 -1.0459 -0.5174 3.5756 0.3833 -0.3749 7.6387 -1.4244 1.0030 -0.5864 3.8530 0.2233 19.5103 1.4470 0.0405 5.9733 0.0000 0.0000 0.0000 -90.6418 -0.0749 19.4441 33.7326 -43.8856 -13.9274 -0.0000 -0.0000 31.6735 15.1002 -24.3085 -6.3380 -7.1250 0.0000 -0.0000 -8.7593 5.1547 8.0334 0.0000 0.0000 0.0000 83.8957 4.1244 45.3981 -26.8410 38.0272 -9.4010 0.0000 0.0000 15.5880 -22.8165 -35.1070 13.6012 7.1250 -0.0000 -0.0000 14.0884 -66.8072 -7.4634
10.6059 15.9001 -0.5736 103.7700 -88.3933 -107.0180 0.0000 0.0000 0.0000 -9.7461 -3.7210 -11.8306 4.4548 12.7422 38.4109 1.8169 12.1049 -32.2646 3.6695 -11.7071 -34.7035 0.0000 0.0000 0.0000 7.6779 5.7882 -7.9807 -4.2457 -12.4804 37.4533 -3.4086 1.6891 -34.5898 -2.6895 -10.1747 29.5442 -2.7710 -0.6257 -6.8638 -1.0114 -0.5119 3.5683 0.4230 -0.3731 7.6237 -1.4990 1.0160 -0.6290 3.8998 0.2355 19.5619 1.4756 0.0445 5.9959 0.0000 0.0000 0.0000 -90.6506 -0.0708 19.2911 33.8468 -43.9709 -14.0066 -0.0000 -0.0000 31.3463 14.3091 -24.8191 -6.1111 -7.1250 0.0000 -0.0000 -9.2745 4.7487 8.5905 0.0000 0.0000 0.0000 83.8849 4.1326 45.4211 -26.8556 38.0411 -9.4100 0.0000 0.0000 15.6751 -22.7774 -35.0660 13.5629 7.1250 -0.0000 -0.0000 14.0965 -66.7561 -7.4513
10.6039 15.9006 -0.5765 105.8970 -88.4298 -109.1150 0.0000 0.0000 0.0000 -9.6763 -3.6885 -11.8624 4.4543 12.7416 38.4088 1.8103 12.1476 -32.2575 3.6846 -11.7284 -34.7779 0.0000 0.0000 0.0000 7.7633 5.9016 -7.9806 -4.2466 -12.4815 37.4572 -3.4174 1.6753 -34.6391 -2.7139 -10.2169 29.6820 -2.7848 -0.6228 -6.8784 -0.9816 -0.5079 3.5690 0.4625 -0.3726 7.6332 -1.5510 1.0232 -0.6632 3.9120 0.2454 19.5953 1.4892 0.0468 6.0118 0.0000 0.0000 0.0000 -90.6633 -0.0664 19.1387 33.9373 -44.0382 -14.0694 -0.0000 -0.0000 31.1790 13.7912 -25.2460 -5.9765 -7.1250 0.0000 -0.0000 -9.6147 4.3906 8.9803 0.0000 0.0000 0.0000 83.8799 4.1505 45.4569 -26.8728 38.0577 -9.4206 0.0000 0.0000 15.7173 -22.7268 -35.0812 13.5355 7.1250 -0.0000 -0.0000 14.1739 -66.7559 -7.4929
10.6012 15.9007 -0.5797 107.9300 -88.4426 -111.1150 0.0000 0.0000 0.0000 -9.6290 -3.6464 -11.8894 4.4518 12.7385 38.3972 1.8045 12.1754 -32.2437 3.6867 -11.7314 -34.7884 0.0000 0.0000 0.0000 7.8236 6.0166 -7.9866 -4.2503 -12.4862 37.4745 -3.4294 1.6683 -34.7038 -2.7241 -10.2344 29.7392 -2.8201 -0.6165 -6.9241 -0.9644 -0.4949 3.5815 0.5015 -0.3690 7.6735 -1.5460 1.0221 -0.6995 3.8762 0.2502 19.6094 1.4775 0.0477 6.0225 -0.0000 -0.0000 0.0000 -90.6617 -0.0835 19.0158 33.9891 -44.0766 -14.1055 -0.0000 -0.0000 31.1695 13.5449 -25.5904 -5.9406 -7.1250 0.0000 -0.0000 -9.7838 4.0796 9.2006 -0.0000 -0.0000 0.0000 83.8923 4.1860 45.4874 -26.8903 38.0744 -9.4314 0.0000 0.0000 15.7015 -22.6630 -35.1538 13.5182 7.1250 -0.0000 -0.0000 14.3239 -66.8070 -7.5903
10.5981 15.9009 -0.5832 109.6550 -88.4157 -112.8060 0.0000 0.0000 0.0000 -9.6247 -3.6010 -11.9084 4.4475 12.7332 38.3777 1.8020 12.1902 -32.2399 3.6784 -11.7197 -34.7476 0.0000 0.0000 0.0000 7.8389 6.1304 -8.0001 -4.2560 -12.4935 37.5008 -3.4414 1.6735 -34.7648 -2.7380 -10.2583 29.8173 -2.8858 -0.6021 -6.9874 -0.9663 -0.4662 3.5966 0.5394 -0.3590 7.7265 -1.4893 1.0132 -0.7250 3.8078 0.2475 19.6079 1.4462 0.0463 6.0272 0.0000 -0.0000 0.0000 -90.6413 -0.1029 18.9367 34.0138 -44.0949 -14.1227 -0.0000 -0.0000 31.2846 13.5050 -25.8522 -5.9786 -7.1250 0.0000 -0.0000 -9.8231 3.8236 9.2862 0.0000 -0.0000 0.0000 83.9262 4.2201 45.4964 -26.9069 38.0903 -9.4416 0.0000 0.0000 15.6429 -22.6007 -35.2430 13.5071 7.1250 -0.0000 -0.0000 14.4892 -66.8745 -7.7017
10.5951 15.9011 -0.5868 111.0630 -88.3534 -114.1790 0.0000 0.0000 0.0000 -9.6585 -3.5555 -11.9212 4.4420 12.7264 38.3529 1.8046 12.1910 -32.2564 3.6632 -11.6983 -34.6727 0.0000 0.0000 0.0000 7.8142 6.2436 -8.0213 -4.2629 -12.5022 37.5326 -3.4525 1.6895 -34.8185 -2.7576 -10.2919 29.9272 -2.9785 -0.5796 -7.0487 -0.9827 -0.4230 3.6019 0.5793 -0.3427 7.7675 -1.3999 0.9997 -0.7075 3.7249 0.2388 19.5824 1.4041 0.0428 6.0172 -0.0000 -0.0000 0.0000 -90.6066 -0.0970 18.9028 34.0301 -44.1070 -14.1340 -0.0000 -0.0000 31.4763 13.6011 -26.0155 -6.0576 -7.1250 0.0000 -0.0000 -9.7748 3.6476 9.2714 -0.0000 -0.0000 0.0000 83.9736 4.2298 45.4815 -26.9243 38.1069 -9.4523 0.0000 0.0000 15.5722 -22.5512 -35.3081 13.4962 7.1250 -0.0000 -0.0000 14.6153 -66.9223 -7.7859
10.5928 15.9017 -0.5904 112.6250 -88.2879 -115.7060 0.0000 0.0000 0.0000 -9.6913 -3.5150 -11.9302 4.4366 12.7197 38.3282 1.8117 12.1798 -32.2901 3.6383 -11.6629 -34.5496 0.0000 0.0000 0.0000 7.7925 6.3658 -8.0428 -4.2696 -12.5108 37.5639 -3.4632 1.7013 -34.8710 -2.7784 -10.3273 30.0434 -3.0694 -0.5535 -7.0944 -0.9959 -0.3761 3.5981 0.6225 -0.3244 7.7895 -1.3165 0.9888 -0.6490 3.6543 0.2325 19.5307 1.3667 0.0403 5.9917 0.0000 -0.0000 0.0000 -90.5738 -0.0693 18.8861 34.0636 -44.1318 -14.1574 -0.0000 -0.0000 31.6258 13.6459 -26.1177 -6.1002 -7.1250 0.0000 -0.0000 -9.7540 3.5396 9.2708 0.0000 -0.0000 0.0000 84.0170 4.2235 45.4604 -26.9401 38.1220 -9.4621 0.0000 0.0000 15.5094 -22.5197 -35.3231 13.4809 7.1250 -0.0000 -0.0000 14.6693 -66.9275 -7.8169
10.5911 15.9026 -0.5938 114.5250 -88.2372 -117.5770 0.0000 0.0000 0.0000 -9.7021 -3.4834 -11.9342 4.4324 12.7146 38.3092 1.8218 12.1594 -32.3353 3.6000 -11.6082 -34.3597 0.0000 0.0000 0.0000 7.7934 6.4861 -8.0618 -4.2750 -12.5177 37.5888 -3.4715 1.7011 -34.9141 -2.7934 -10.3529 30.1272 -3.1385 -0.5290 -7.1208 -0.9972 -0.3351 3.5915 0.6654 -0.3079 7.7970 -1.2700 0.9843 -0.5706 3.6184 0.2322 19.4604 1.3467 0.0403 5.9564 0.0000 0.0000 0.0000 -90.5549 -0.0304 18.8618 34.1103 -44.1662 -14.1898 -0.0000 -0.0000 31.7661 13.6620 -26.1777 -6.1206 -7.1250 0.0000 -0.0000 -9.7480 3.4775 9.2762 0.0000 0.0000 0.0000 84.0473 4.2193 45.4493 -26.9482 38.1298 -9.4672 0.0000 0.0000 15.4694 -22.5225 -35.2687 13.4653 7.1250 -0.0000 -0.0000 14.6112 -66.8761 -7.7682
10.5899 15.9035 -0.5966 116.7720 -88.2143 -119.8030 0.0000 0.0000 0.0000 -9.6763 -3.4530 -11.9375 4.4304 12.7122 38.3004 1.8313 12.1394 -32.3771 3.5632 -11.5553 -34.1763 0.0000 0.0000 0.0000 7.8284 6.5873 -8.0761 -4.2783 -12.5218 37.6037 -3.4759 1.6843 -34.9414 -2.7974 -10.3596 30.1492 -3.1724 -0.5093 -7.1305 -0.9832 -0.3057 3.5882 0.7031 -0.2956 7.7985 -1.2575 0.9863 -0.4916 3.6097 0.2390 19.3834 1.3414 0.0433 5.9185 -0.0000 -0.0000 0.0000 -90.5513 0.0024 18.8215 34.1596 -44.2027 -14.2243 -0.0000 -0.0000 31.9170 13.6641 -26.2036 -6.1271 -7.1250 0.0000 -0.0000 -9.7483 3.4514 9.2813 -0.0000 -0.0000 0.0000 84.0589 4.2288 45.4587 -26.9478 38.1293 -9.4669 0.0000 0.0000 15.4578 -22.5613 -35.1631 13.4562 7.1250 -0.0000 -0.0000 14.4583 -66.7860 -7.6558
10.5887 15.9044 -0.5992 119.4060 -88.2271 -122.4220 0.0000 0.0000 0.0000 -9.6050 -3.4231 -11.9425 4.4309 12.7127 38.3024 1.8378 12.1294 -32.4080 3.5420 -11.5246 -34.0702 0.0000 0.0000 0.0000 7.9064 6.6643 -8.0835 -4.2793 -12.5231 37.6085 -3.4773 1.6476 -34.9578 -2.7877 -10.3433 30.0956 -3.1667 -0.4961 -7.1351 -0.9542 -0.2901 3.5937 0.7326 -0.2886 7.8066 -1.2585 0.9947 -0.4380 3.6078 0.2541 19.3189 1.3411 0.0502 5.8885 0.0000 0.0000 0.0000 -90.5565 0.0151 18.7684 34.2026 -44.2343 -14.2542 -0.0000 -0.0000 32.0775 13.6735 -26.2218 -6.1354 -7.1250 0.0000 -0.0000 -9.7439 3.4320 9.2805 0.0000 0.0000 0.0000 84.0519 4.2614 45.4986 -26.9419 38.1237 -9.4632 0.0000 0.0000 15.4625 -22.6219 -35.0652 13.4634 7.1250 -0.0000 -0.0000 14.2874 -66.7096 -7.5388
10.5871 15.9050 -0.6016 122.2290 -88.2633 -125.2340 0.0000 0.0000 0.0000 -9.5064 -3.4029 -11.9488 4.4332 12.7156 38.3131 1.8410 12.1327 -32.4295 3.5399 -11.5216 -34.0599 0.0000 0.0000 0.0000 8.0101 6.7157 -8.0885 -4.2789 -12.5225 37.6065 -3.4759 1.6009 -34.9625 -2.7700 -10.3131 29.9967 -3.1316 -0.4880 -7.1447 -0.9204 -0.2844 3.6058 0.7492 -0.2851 7.8248 -1.2507 1.0056 -0.4212 3.5948 0.2729 19.2836 1.3363 0.0593 5.8741 0.0000 0.0000 0.0000 -90.5573 0.0066 18.6946 34.2247 -44.2505 -14.2696 -0.0000 -0.0000 32.2534 13.7093 -26.3478 -6.1792 -7.1250 0.0000 -0.0000 -9.7301 3.3012 9.2908 0.0000 0.0000 0.0000 84.0377 4.3148 45.5657 -26.9330 38.1152 -9.4577 0.0000 0.0000 15.4725 -22.6999 -35.0256 13.5003 7.1250 -0.0000 -0.0000 14.1526 -66.6943 -7.4615
